<?xml version="1.0" standalone="no"?>
<!DOCTYPE svg PUBLIC "-//W3C//DTD SVG 20010904//EN"
 "http://www.w3.org/TR/2001/REC-SVG-20010904/DTD/svg10.dtd">
<svg version="1.0" xmlns="http://www.w3.org/2000/svg"
 width="600.000000pt" height="600.000000pt" viewBox="0 0 600.000000 600.000000"
 preserveAspectRatio="xMidYMid meet">
<metadata>
Created by potrace 1.14, written by Peter Selinger 2001-2017
</metadata>
<g transform="translate(0.000000,600.000000) scale(0.100000,-0.100000)"
fill="#000000" stroke="none">
<path d="M3075 5922 c-1 -2 -43 -5 -91 -7 -79 -3 -176 -15 -241 -30 -13 -3
-32 -7 -43 -10 -49 -10 -167 -45 -195 -56 -16 -7 -33 -12 -36 -11 -25 4 -377
-191 -409 -227 -3 -4 -21 -18 -40 -32 -118 -89 -265 -244 -362 -382 -32 -45
-62 -87 -68 -94 -12 -14 -42 -68 -80 -141 -18 -34 -27 -64 -25 -85 2 -18 6
-91 10 -162 3 -72 8 -155 10 -185 3 -48 12 -235 20 -430 24 -553 24 -1171 0
-1209 -6 -11 -25 -112 -31 -171 -16 -161 -20 -305 -13 -479 1 -45 -2 -66 -11
-69 -19 -7 -122 -92 -157 -131 -18 -20 -43 -54 -54 -77 -16 -30 -37 -48 -78
-70 -30 -16 -62 -34 -71 -41 -8 -7 -39 -29 -67 -51 -54 -39 -131 -111 -169
-156 -68 -80 -134 -214 -149 -303 -6 -36 -13 -46 -50 -68 -64 -37 -177 -152
-204 -208 -26 -55 -40 -134 -29 -176 2 -8 -7 -15 -21 -17 -33 -6 -90 -33 -130
-62 -47 -35 -80 -110 -76 -175 4 -66 16 -96 54 -135 48 -48 117 -66 225 -59
100 7 123 10 131 19 4 3 27 3 53 0 26 -3 66 -5 90 -6 26 0 42 -5 42 -12 0 -15
55 -44 81 -44 10 0 21 -5 25 -11 13 -22 94 -50 137 -48 31 2 55 -5 88 -24 118
-69 238 -72 357 -10 17 10 32 21 32 25 0 16 22 7 58 -21 60 -48 143 -71 242
-67 47 2 101 11 121 19 32 14 36 14 46 -2 9 -15 66 -39 113 -47 8 -2 19 -9 25
-16 37 -47 124 -77 213 -73 90 4 147 19 265 70 12 5 17 3 17 -9 0 -8 15 -23
33 -33 26 -14 56 -17 157 -16 160 2 200 8 245 39 l37 25 47 -18 c62 -24 176
-22 261 6 52 16 67 18 80 8 8 -7 26 -18 40 -25 24 -11 38 -14 120 -28 82 -14
341 -4 410 16 17 5 30 7 30 4 0 -13 82 40 88 56 7 19 9 19 44 -6 63 -45 154
-42 207 7 21 20 22 20 49 1 84 -58 187 -76 272 -48 47 15 74 33 122 79 17 16
21 16 55 2 75 -31 196 -25 228 11 6 7 47 14 92 17 70 4 95 11 165 45 46 22 93
50 105 61 12 12 26 21 32 21 5 0 11 6 14 13 2 8 29 12 84 12 67 0 85 3 103 20
20 18 22 27 17 95 -7 93 -14 117 -44 158 -34 46 -75 63 -162 69 -83 6 -102 14
-96 43 4 19 -13 45 -66 103 -15 16 -35 50 -44 76 -36 94 -55 127 -103 179 -30
30 -53 65 -57 85 -9 43 -39 94 -120 202 -37 50 -80 118 -96 153 -35 75 -71
110 -169 168 -97 57 -102 61 -135 114 -15 25 -42 57 -60 72 l-33 28 4 267 c7
466 18 828 29 953 5 64 13 167 21 300 9 151 12 197 18 330 4 69 9 147 12 175
2 27 7 94 9 149 2 54 6 101 8 103 3 2 2 18 -2 36 -4 18 -6 91 -5 162 1 107 5
141 24 195 26 72 33 185 18 272 -18 106 -152 305 -307 458 -169 168 -337 277
-605 395 -53 24 -206 75 -206 69 0 -2 -11 3 -25 12 -14 9 -25 14 -25 11 0 -3
-15 -1 -32 4 -36 11 -57 16 -103 25 -16 3 -34 7 -40 8 -18 5 -79 15 -120 21
-46 6 -175 11 -180 7z"/>
</g>
</svg>
